<svg width="37" height="37" viewBox="0 0 37 37" fill="none" xmlns="http://www.w3.org/2000/svg">
<path d="M7.44111 16.0128C10.4011 21.83 15.17 26.5783 20.9872 29.5589L25.5094 25.0367C26.0644 24.4817 26.8867 24.2967 27.6061 24.5433C29.9083 25.3039 32.3956 25.715 34.9444 25.715C36.075 25.715 37 26.64 37 27.7706V34.9444C37 36.075 36.075 37 34.9444 37C15.6428 37 0 21.3572 0 2.05556C0 0.925 0.925 0 2.05556 0H9.25C10.3806 0 11.3056 0.925 11.3056 2.05556C11.3056 4.625 11.7167 7.09167 12.4772 9.39389C12.7033 10.1133 12.5389 10.915 11.9633 11.4906L7.44111 16.0128Z" fill="white"/>
</svg>
