<?xml version="1.0" encoding="utf-8"?>
<!-- Generator: Adobe Illustrator 26.0.1, SVG Export Plug-In . SVG Version: 6.00 Build 0)  -->
<svg version="1.0" xmlns="http://www.w3.org/2000/svg" xmlns:xlink="http://www.w3.org/1999/xlink" x="0px" y="0px"
	 viewBox="0 0 1080 277" xml:space="preserve">
<style type="text/css">
	.st0{fill:#151515;}
</style>
<path class="st0" d="M0,119.8l12.5-7.3l44.8,3.6v4.6h16.8l6.3-3.2l6,5v11l50,2v-4l2-4l3,4v4l31-22h10l13-7h14l5-2l3,4l11-5h11l28-12
	l7,4l64,5l4-4h13l11-4l35,3v39l8,5v-11l-2-3v-6h6V111h-4l3.8-3.8v-9.3l2.2,1.7v8.8l10-13.8l4,7l9-7v-4l3,2l21-7v-6l3,6l17-24L518,47
	l8,7l31-12V21h-3v-3l3.5-2.5v-6L554,9V5l13-5l13,3v4h-2v10l4,2v2.3l-4,1V34l82,9l3,3l20,2l14,17h11l1.5,4.8v6.7H723L743,87v-8.6
	c0,0,0-3.4,3-3.4s3,3,3,3v22l26-15l42.6-8l22.4,8v-2.3h4v3.8l9,3.5v-4.6h4v5.5h3l-4,4.1l-1,33l14,2v4.5l16,0.5v4.5l19-2.5l18,4v-7.3
	h3v5.4l6-1.1v-20l14-8v-8.8l3-1.2v7.7l8-5.7l45,9l19,7l-1,3l-2,46l15,4l6-3h18l7,6h5.1l1.9,4l10,4.4V277H0V119.8z"/>
</svg>
