<?xml version="1.0" encoding="utf-8"?>
<!-- Generator: Adobe Illustrator 26.0.1, SVG Export Plug-In . SVG Version: 6.00 Build 0)  -->
<svg version="1.0" xmlns="http://www.w3.org/2000/svg" xmlns:xlink="http://www.w3.org/1999/xlink" x="0px" y="0px"
	 viewBox="0 0 600 200" xml:space="preserve">
<style type="text/css">
	.st0{fill:#FFFFFF;}
	.st1{fill:none;stroke:#FFFFFF;stroke-width:3;stroke-miterlimit:10;}
</style>
<g>
	<path class="st0" d="M67.8,99.3v-4.1H74V55.4l-1.9,0.1c-4,0.2-6.9,1-8.4,2.5c-1.5,1.5-2.5,4.2-2.9,7.9l-0.1,0.9h-3.9L57,51.3h42.2
		l0.2,15.6h-4l-0.1-0.9c-0.2-3.5-1.2-6.1-2.7-7.7c-1.5-1.6-4.4-2.5-8.5-2.7l-2-0.1v39.8h6.3v4.1H67.8z"/>
	<path class="st0" d="M98.2,52.3H58l-0.1,13.6h1.9c0.4-4,1.5-6.8,3.2-8.5c1.7-1.7,4.7-2.7,9.1-2.8l3-0.1v41.9h-6.2v2.1h18.6v-2.1
		h-6.3V54.4l3.1,0.1c4.4,0.2,7.4,1.2,9.2,3c1.7,1.8,2.7,4.6,3,8.3h2L98.2,52.3z"/>
	<path class="st0" d="M147.6,95.3c-2.8-0.3-3.7-0.9-4-1.3L131,77c3.3-0.5,6.1-1.6,8.3-3.5c2.7-2.4,4.1-5.6,4.1-9.4
		c0-3.9-1.5-7-4.6-9.4c-3-2.3-7.3-3.4-12.9-3.4h-21.3v4.1h6.2v39.8h-6.2v4.1h20.6v-4.1h-6.2l-0.1-17.7h2.5l12.4,17.7h-2.6l-0.1,4.2
		l1.1,0c3.5-0.1,6.6-0.1,9.1-0.1c2.5,0,4.6,0,6.2,0.1l1.1,0.1v-4L147.6,95.3z M117.9,54.4h7.1c6.8,0,10.3,3.2,10.5,9.7
		c0.2,7-3.8,10.5-11.9,10.5h-5.8L117.9,54.4z"/>
	<path class="st0" d="M142.8,94.7l-13.7-18.6c3.9-0.3,7.1-1.4,9.5-3.4c2.5-2.2,3.7-5.1,3.7-8.7c0-3.6-1.4-6.4-4.2-8.6
		c-2.8-2.1-6.9-3.2-12.3-3.2h-20.2v2.1h6.2v41.9h-6.2v2.1h18.6v-2.1h-6.2l-0.1-19.8h4.1l12.8,18.2c0.2,0.2,0.3,0.5,0.3,0.8
		s-0.3,0.6-0.9,0.7h-1.9l-0.1,2.1c7-0.1,12.2-0.1,15.4,0v-2C145.1,96.1,143.5,95.6,142.8,94.7z M117.8,74.5l0.1-20.2h7.1
		c6.8,0,10.3,3.2,10.5,9.7c0.2,7-3.8,10.5-11.9,10.5H117.8z"/>
	<path class="st0" d="M194.8,95.2L179,50h-4.1l-14.7,38.7c-1.6,4.5-2.6,5.5-3,5.7c-0.6,0.3-1.7,0.8-4.1,0.8l-1.5,0v4.1h16.6v-4.1h-1
		c-2.4,0-3.2-0.2-3.4-0.3c-0.1-0.2-0.2-0.6-0.2-1.4c0-0.6,0.2-1.7,1.1-4.1l2.3-5.4h14.7l3.8,11.1h-4.9v4.1H200v-4.1H194.8z
		 M167.3,80.5l7.6-19.6l6.6,19.6H167.3z"/>
	<path class="st0" d="M194,96.2L178.3,51h-2.7l-14.5,38.1c-1.2,3.5-2.4,5.6-3.4,6.2c-1,0.7-2.7,0.9-5,0.9v2.1h14.6v-2.1
		c-2.5,0-3.9-0.2-4.2-0.6c-0.3-0.4-0.4-1.1-0.4-2s0.4-2.5,1.2-4.5l2.5-6h16.1l4.5,13.2h-5.3v2.1H199v-2.1H194z M167.3,80.5l7.6-19.6
		l6.6,19.6H167.3z"/>
	<path class="st0" d="M227.4,113.9c-1.8,0-4-0.4-6.4-1l-1.1-0.3l1.8-4l0.9,0.3c1.4,0.4,2.6,0.6,3.6,0.6c2.7,0,2.7-1.2,2.7-1.9
		c0-0.7-0.1-1.3-1.6-1.3c-0.6,0-1.4,0.1-2.2,0.4l-0.5,0.2l-1.5-1.3l2.3-5.5c-5.1-0.8-9.4-3.4-12.9-7.9c-3.8-4.8-5.7-10.7-5.7-17.6
		c0-6.9,2.2-12.8,6.4-17.5c4-4.5,9-6.8,15.1-6.8c3.8,0,7.1,0.3,9.8,0.9c1.4,0.4,3.2,1,5.6,1.9l0.8,0.3l-0.2,0.9
		c-0.8,3.6-1.2,6.8-1.2,9.6v1h-4v-5.7c0-0.3-0.2-0.9-1.3-2.1c-0.9-0.9-1.8-1.5-2.7-1.8c-2.3-0.8-4.3-1.2-6-1.2c-0.2,0-0.3,0-0.5,0
		c-8.1,0.5-12,7.4-12,21.1c0,6.1,1.1,11.2,3.2,15c2,3.7,4.7,5.5,8.1,5.6c0.3,0,0.6,0,1,0c3.1,0,5.8-0.5,7.9-1.5
		c2.3-1.1,4.8-2.9,7.3-5.4l0.8-0.8l2,2.3l-2.4,3.9l-3.2,2.4c-3.1,2.1-7,3.3-11.6,3.5l-0.5,1.5c0.3,0,0.6,0,0.9,0
		c1.3,0,2.6,0.5,3.8,1.5c1.3,1,1.9,2.5,1.9,4.5c0,2-1,3.6-2.9,4.7C231.2,113.4,229.3,113.9,227.4,113.9z"/>
	<path class="st0" d="M244.8,89.8c-2.6,2.6-5.1,4.5-7.6,5.6c-2.4,1.1-5.5,1.6-9.3,1.5c-3.8-0.1-6.7-2.2-8.9-6.1
		c-2.2-4-3.3-9.1-3.3-15.5c0-14.2,4.3-21.5,13-22.1c2-0.1,4.3,0.3,6.9,1.2c1,0.3,2.1,1,3.1,2c1,1,1.6,2,1.6,2.8v4.7h2
		c0-2.9,0.4-6.2,1.2-9.8c-2.3-0.8-4.1-1.5-5.5-1.9c-2.6-0.6-5.8-0.9-9.6-0.9c-5.8,0-10.6,2.2-14.4,6.5c-4,4.5-6.1,10.1-6.1,16.8
		c0,6.7,1.8,12.4,5.4,17c3.7,4.6,8.2,7.2,13.6,7.6l-2.5,6l0.5,0.4c0.9-0.3,1.8-0.5,2.5-0.5c1.7,0,2.6,0.8,2.6,2.3
		c0,1.9-1.2,2.9-3.7,2.9c-1.2,0-2.5-0.2-3.9-0.7l-0.9,2.1c2.3,0.7,4.3,1,6.1,1c1.7,0,3.4-0.4,5-1.3c1.6-0.9,2.4-2.1,2.4-3.8
		c0-1.7-0.5-2.9-1.5-3.7c-1-0.8-2.1-1.2-3.2-1.2c-1.1,0-1.9,0.1-2.5,0.3l1.4-3.8c4.7-0.1,8.6-1.3,11.7-3.3l3-2.3l1.9-3.1L244.8,89.8
		z"/>
	<path class="st0" d="M297.7,95.2L281.9,50h-4.1l-14.7,38.7c-1.6,4.5-2.6,5.5-3,5.7c-0.6,0.3-1.7,0.8-4.1,0.8l-1.5,0v4.1h16.6v-4.1
		h-1c-2.3,0-3.2-0.2-3.4-0.3c-0.1-0.2-0.2-0.6-0.2-1.4c0-0.6,0.2-1.7,1.1-4.1l2.3-5.4h14.7l3.8,11.1h-4.9v4.1h19.4v-4.1H297.7z
		 M270.2,80.5l7.6-19.6l6.6,19.6H270.2z"/>
	<path class="st0" d="M297,96.2L281.2,51h-2.7L264,89.1c-1.2,3.5-2.4,5.6-3.4,6.2c-1,0.7-2.7,0.9-5,0.9v2.1h14.6v-2.1
		c-2.5,0-3.9-0.2-4.2-0.6c-0.3-0.4-0.4-1.1-0.4-2s0.4-2.5,1.2-4.5l2.5-6h16.1l4.5,13.2h-5.3v2.1h17.4v-2.1H297z M270.2,80.5
		l7.6-19.6l6.6,19.6H270.2z"/>
	<path class="st0" d="M348.3,58.3c-3.8-4.4-9-6.6-15.6-6.7c-2.6,0-5,0-7,0c-2.1,0-3.9,0-5.4,0c-0.5,0-1,0-1.6,0
		c-2.6,0-5.6-0.1-8.9-0.3l-1.1-0.1v4.2h6.3v39.8h-6.3v4.1l1,0c2.8-0.1,5.7-0.1,8.7-0.1c4.5,0,9.2,0.1,14,0.2c0.2,0,0.4,0,0.6,0
		c5.4,0,10.3-2.3,14.4-6.8c4.3-4.7,6.4-10.3,6.4-16.8C353.9,68.5,352,62.6,348.3,58.3z M332.6,96.5c-1,0.1-2.2,0.1-3.8,0.1
		c-1.5,0-3.8-0.1-6.8-0.4V54.6c3.2-0.4,6.7-0.5,10.8-0.3c4.9,0.4,8.5,2.7,10.5,6.9c1.7,3.3,2.6,8,2.6,14.1c0.1,6.1-1,10.9-3.2,14.4
		C340.5,93.6,337.1,95.8,332.6,96.5z"/>
	<path class="st0" d="M347.5,58.9c-3.6-4.2-8.5-6.3-14.8-6.4c-5.2,0-9.3,0-12.4,0c-3.1,0-6.6,0-10.5-0.3v2.1h6.3v41.9h-6.3v2.1
		c7.1-0.2,14.7-0.1,22.8,0.1c5.4,0.2,10.1-2,14.3-6.5c4.1-4.5,6.2-9.9,6.2-16.1C352.9,68.7,351.1,63.1,347.5,58.9z M342.7,89.8
		c-2.2,3.8-5.6,6-10.2,6.7c-1,0.1-2.2,0.1-3.8,0.1c-1.5,0-3.8-0.1-6.8-0.4V54.6c3.2-0.4,6.7-0.5,10.8-0.3c4.9,0.4,8.5,2.7,10.5,6.9
		c1.7,3.3,2.6,8,2.6,14.1C345.9,81.5,344.9,86.3,342.7,89.8z"/>
	<polygon class="st0" points="362.7,99.3 362.7,95.2 369,95.2 369,55.4 362.7,55.4 362.7,51.3 383.9,51.3 383.9,55.4 377.6,55.4 
		377.6,95.2 383.9,95.2 383.9,99.3 	"/>
	<path class="st0" d="M382.8,54.4v-2.1h-19.1v2.1h6.3v41.9h-6.3v2.1h19.1v-2.1h-6.2V54.4H382.8z"/>
	<path class="st0" d="M428.2,100.5l-26.7-41.1v31.1c0,2,0.5,3.5,1.4,4.3c0,0,0.7,0.4,3.8,0.4h1v4.1H391v-4.1h1
		c3.1,0,3.7-0.3,3.8-0.4c1-0.9,1.5-2.3,1.5-4.4V56c0-0.3-0.1-0.6-1-0.6h-4.8v-4.1h14.9L427,83.2v-23c0-2-0.5-3.5-1.6-4.5
		c0,0,0,0,0,0c0,0-0.7-0.3-3.7-0.3h-1v-4.1h16.8v4.1h-1c-3.2,0-3.8,0.4-3.8,0.4c-0.9,0.9-1.4,2.4-1.4,4.4l0.1,40.3H428.2z"/>
	<path class="st0" d="M421.7,52.3v2.1c2.4,0,3.9,0.2,4.4,0.6c1.2,1.2,1.9,2.9,1.9,5.2v26.5l-22.1-34.4h-13.4v2.1h3.7
		c1.2,0,1.9,0.5,2,1.5v34.6c0,2.4-0.6,4.1-1.9,5.1c-0.4,0.4-1.9,0.6-4.4,0.6v2.1h14.8v-2.1c-2.6,0-4.1-0.2-4.5-0.7
		c-1.1-1.1-1.7-2.8-1.7-5.1V55.9l28.3,43.5h1.5l-0.1-39.3c0-2.3,0.6-4,1.7-5.1c0.4-0.4,2-0.7,4.5-0.7v-2.1H421.7z"/>
	<polygon class="st0" points="469.8,99.3 469.8,95.2 476.1,95.2 476.1,76.3 457.6,76.3 457.6,95.2 463.9,95.2 463.9,99.3 
		443.4,99.3 443.4,95.2 449.7,95.2 449.7,55.4 443.4,55.4 443.4,51.3 463.9,51.3 463.9,55.4 457.6,55.4 457.6,71.9 476.1,71.9 
		476.1,55.4 469.8,55.4 469.8,51.3 490.4,51.3 490.4,55.4 484.2,55.4 484.2,95.2 490.4,95.2 490.4,99.3 	"/>
	<path class="st0" d="M489.4,54.4v-2.1h-18.6v2.1h6.3v18.6h-20.5V54.4h6.2v-2.1h-18.4v2.1h6.3v41.9h-6.3v2.1h18.4v-2.1h-6.2v-21
		h20.5v21h-6.3v2.1h18.6v-2.1h-6.2V54.4H489.4z"/>
	<path class="st0" d="M539.6,95.2L523.9,50h-4.1L505,88.7c-1.6,4.5-2.6,5.5-3,5.7c-0.6,0.3-1.7,0.8-4.1,0.8l-1.5,0v4.1h16.6v-4.1h-1
		c-2.4,0-3.2-0.2-3.4-0.3c-0.1-0.2-0.2-0.6-0.2-1.4c0-0.6,0.2-1.7,1.1-4.1l2.3-5.4h14.7l3.8,11.1h-4.9v4.1h19.4v-4.1H539.6z
		 M512.1,80.5l7.6-19.6l6.6,19.6H512.1z"/>
	<path class="st0" d="M538.9,96.2L523.1,51h-2.7L506,89.1c-1.2,3.5-2.4,5.6-3.4,6.2c-1,0.7-2.7,0.9-5,0.9v2.1h14.6v-2.1
		c-2.5,0-3.9-0.2-4.2-0.6c-0.3-0.4-0.4-1.1-0.4-2s0.4-2.5,1.2-4.5l2.5-6h16.1l4.5,13.2h-5.3v2.1h17.4v-2.1H538.9z M512.1,80.5
		l7.6-19.6l6.6,19.6H512.1z"/>
</g>
<path class="st1" d="M55.5,114c0,13.8,11.2,25,25,25h120.2"/>
<path class="st1" d="M399.3,139h120.2c13.8,0,25-11.2,25-25"/>
<g>
	<path class="st0" d="M230.1,131.5c1.5,0.8,2.6,1.9,3.5,3.3c0.8,1.4,1.2,3.1,1.2,5c0,1.9-0.4,3.5-1.2,4.9c-0.8,1.4-2,2.5-3.5,3.2
		c-1.5,0.7-3.2,1.1-5.2,1.1h-6.1v-18.7h6.1C226.9,130.4,228.7,130.8,230.1,131.5z M229.9,144.8c1.2-1.2,1.7-2.8,1.7-5
		c0-2.2-0.6-3.9-1.7-5.1c-1.2-1.2-2.8-1.8-5-1.8h-3v13.7h3C227.1,146.6,228.8,146,229.9,144.8z"/>
	<path class="st0" d="M240.9,132.9v5.5h6.4v2.5h-6.4v5.7h7.2v2.5h-10.3v-18.7h10.3v2.5H240.9z"/>
	<path class="st0" d="M259.2,134.8c0.8-1.4,2-2.6,3.5-3.4c1.5-0.8,3.1-1.2,4.8-1.2c2,0,3.8,0.5,5.3,1.5c1.5,1,2.7,2.4,3.4,4.1h-3.7
		c-0.5-1-1.2-1.7-2-2.2c-0.9-0.5-1.9-0.7-3-0.7c-1.2,0-2.3,0.3-3.3,0.8c-1,0.6-1.7,1.4-2.3,2.4c-0.5,1-0.8,2.2-0.8,3.6
		c0,1.4,0.3,2.6,0.8,3.6c0.5,1,1.3,1.8,2.3,2.4c1,0.6,2.1,0.8,3.3,0.8c1.1,0,2.1-0.2,3-0.7c0.9-0.5,1.5-1.2,2-2.2h3.7
		c-0.7,1.8-1.8,3.2-3.4,4.1c-1.5,1-3.3,1.4-5.3,1.4c-1.8,0-3.4-0.4-4.8-1.2c-1.4-0.8-2.6-1.9-3.4-3.4c-0.9-1.4-1.3-3.1-1.3-4.9
		C257.9,137.9,258.3,136.2,259.2,134.8z"/>
	<path class="st0" d="M283.4,148c-1.5-0.8-2.6-2-3.5-3.4c-0.9-1.5-1.3-3.1-1.3-4.9c0-1.8,0.4-3.5,1.3-4.9c0.8-1.4,2-2.6,3.5-3.4
		c1.5-0.8,3.1-1.2,4.8-1.2c1.8,0,3.4,0.4,4.8,1.2c1.5,0.8,2.6,1.9,3.4,3.4c0.8,1.4,1.3,3.1,1.3,4.9c0,1.8-0.4,3.5-1.3,4.9
		c-0.8,1.5-2,2.6-3.4,3.4c-1.5,0.8-3.1,1.2-4.8,1.2C286.4,149.2,284.8,148.8,283.4,148z M291.5,145.7c1-0.6,1.7-1.4,2.3-2.4
		c0.5-1,0.8-2.3,0.8-3.6c0-1.4-0.3-2.6-0.8-3.6c-0.5-1-1.3-1.8-2.3-2.4c-1-0.6-2.1-0.8-3.3-0.8c-1.2,0-2.3,0.3-3.3,0.8
		c-1,0.6-1.7,1.4-2.3,2.4c-0.5,1-0.8,2.2-0.8,3.6c0,1.4,0.3,2.6,0.8,3.6c0.5,1,1.3,1.9,2.3,2.4c1,0.6,2.1,0.8,3.3,0.8
		C289.4,146.6,290.5,146.3,291.5,145.7z"/>
	<path class="st0" d="M303.8,130.4v18.7h-3.1v-18.7H303.8z"/>
	<path class="st0" d="M327.5,130.4v18.7h-3.1v-12.8l-5.7,12.8h-2.1l-5.7-12.8v12.8h-3.1v-18.7h3.3l6.6,14.6l6.5-14.6H327.5z"/>
	<path class="st0" d="M344,141.1c0.7,0.9,1,1.9,1,3c0,0.9-0.2,1.8-0.7,2.6c-0.5,0.8-1.2,1.4-2.1,1.8c-0.9,0.4-2,0.7-3.2,0.7h-7.5
		v-18.7h7.1c1.3,0,2.4,0.2,3.3,0.6c0.9,0.4,1.6,1,2.1,1.7c0.5,0.7,0.7,1.5,0.7,2.4c0,1.1-0.3,2-0.9,2.7c-0.6,0.7-1.3,1.2-2.3,1.6
		C342.5,139.7,343.3,140.2,344,141.1z M334.5,138.2h3.8c1,0,1.8-0.2,2.3-0.7c0.6-0.5,0.8-1.1,0.8-2c0-0.8-0.3-1.5-0.8-2
		c-0.6-0.5-1.3-0.7-2.3-0.7h-3.8V138.2z M341.1,145.8c0.6-0.5,0.9-1.2,0.9-2.1c0-0.9-0.3-1.6-0.9-2.2c-0.6-0.5-1.5-0.8-2.5-0.8h-4
		v5.8h4.1C339.7,146.6,340.5,146.3,341.1,145.8z"/>
	<path class="st0" d="M358.1,149.1l-4.3-7.5h-2.3v7.5h-3.1v-18.7h6.4c1.4,0,2.6,0.3,3.6,0.8c1,0.5,1.7,1.2,2.2,2
		c0.5,0.8,0.7,1.8,0.7,2.8c0,1.2-0.4,2.3-1.1,3.3c-0.7,1-1.8,1.7-3.3,2l4.6,7.7H358.1z M351.5,139.1h3.4c1.1,0,2-0.3,2.6-0.9
		c0.6-0.6,0.9-1.3,0.9-2.3s-0.3-1.7-0.9-2.3c-0.6-0.5-1.4-0.8-2.6-0.8h-3.4V139.1z"/>
	<path class="st0" d="M376.6,145.2h-7.8l-1.3,3.8h-3.2l6.7-18.7h3.5l6.7,18.7h-3.2L376.6,145.2z M375.7,142.7l-3-8.7l-3.1,8.7H375.7
		z"/>
</g>
</svg>
