<?xml version="1.0" encoding="utf-8"?>
<!-- Generator: Adobe Illustrator 26.0.1, SVG Export Plug-In . SVG Version: 6.00 Build 0)  -->
<svg version="1.0" xmlns="http://www.w3.org/2000/svg" xmlns:xlink="http://www.w3.org/1999/xlink" x="0px" y="0px"
	 viewBox="0 0 234 300" xml:space="preserve">
<path d="M206.3,211.2c-34.1,28.2-34.6,63.3-67.5,81.9C88.6,321.3,52.2,255,31.5,227.2C12,201,3.2,164.6,0.5,133.4
	c0-0.5-0.1-0.9-0.1-1.4c-1.6-20.7,2.4-27.1,9.7-30.3c0.2-0.1,0.5-0.2,0.7-0.3l53.3-21.8l13.5,11.9l52.5-20.3V35.6h-5.1v-5.1l5.9-4.2
	V16.2l-5.9-0.9V8.6l22-8.5l22,5.1v6.7h-3.4v17l6.8,3.4v3.9l-6.8,1.7v19.8l46,5c0.2,0,0.4,0.1,0.7,0.1c14,1.4,19.9,22.2,21.3,45.4
	c0,0,0,0.1,0,0.1c0.2,3.3,0.3,6.7,0.3,10.2c0,0.4,0,0.9,0,1.3C234.2,151.4,229,192.4,206.3,211.2z"/>
</svg>
